<?xml version="1.0" encoding="UTF-8"?>
<svg xmlns="http://www.w3.org/2000/svg" xmlns:xlink="http://www.w3.org/1999/xlink" viewBox="0 0 20 20" width="20px" height="20px">
<g id="surface11514108">
<path style=" stroke:none;fill-rule:nonzero;fill:rgb(100%,100%,100%);fill-opacity:1;" d="M 1.125 1.125 L 18.875 1.125 L 18.875 18.875 L 1.125 18.875 Z M 1.125 1.125 "/>
<path style=" stroke:none;fill-rule:nonzero;fill:rgb(100%,100%,100%);fill-opacity:1;" d="M 18.75 1.25 L 18.75 18.75 L 1.25 18.75 L 1.25 1.25 L 18.75 1.25 M 19 1 L 1 1 L 1 19 L 19 19 Z M 19 1 "/>
<path style=" stroke:none;fill-rule:nonzero;fill:rgb(30.588236%,47.843137%,70.980394%);fill-opacity:1;" d="M 13.5 18.75 L 13.5 12 L 15.964844 12 L 16.3125 9.5 L 13.5 9.5 L 13.5 7.808594 C 13.5 7.023438 13.851562 6.488281 14.976562 6.488281 L 16.5 6.488281 L 16.5 4.113281 C 16.253906 4.078125 15.308594 4.003906 14.320312 4.003906 C 12.253906 4.003906 11 5.265625 11 7.585938 L 11 9.5 L 8.5 9.5 L 8.5 12 L 11 12 L 11 18.75 Z M 13.5 18.75 "/>
</g>
</svg>
